# xmcd CD database file
#
# Track frame offsets:
#	150
#	20036
#	39285
#	56674
#	72888
#	90949
#	111087
#	127179
#	144847
#	160381
#	176162
#	193142
#	211955
#	227468
#
# Disc length: 3272 seconds
#
# Revision: 2
# Processed by: cddbd v1.5.2PL0 Copyright (c) Steve Scherf et al.
# Submitted via: CDex 1.51
#
DISCID=c00cc60e
DTITLE=Various Artist - America Will Always Stand
DYEAR=2004
DGENRE=Country
TTITLE0=Darryl Worley - Shiloh (Presence Of The Past)
TTITLE1=Ricky Skaggs - Charlie and Johnny Reb
TTITLE2=The Whites - Woman Back Home
TTITLE3=Collin Raye - Oh Virginia
TTITLE4=Daron Norwood - God And General Lee
TTITLE5=Josh Turner - Tears Of God
TTITLE6=Lee Ann Womack - On A Woman's Heart
TTITLE7=Blake Shelton - Waltzing You Darlin'
TTITLE8=The Wilsons - One Letter
TTITLE9=Marty Raybon - Back In Your Arms Again
TTITLE10=Billy Dean - Home
TTITLE11=Olivia Maxwell - All The Daddies
TTITLE12=The Michaels - I Still Hear The Guns
TTITLE13=Randy Travis - America Will Always Stand
EXTD=YEAR: 2004
EXTT0=
EXTT1=
EXTT2=
EXTT3=
EXTT4=
EXTT5=
EXTT6=
EXTT7=
EXTT8=
EXTT9=
EXTT10=
EXTT11=
EXTT12=
EXTT13=
PLAYORDER=
